<?xml version="1.0" encoding="utf-8"?>
<!-- Generator: Adobe Illustrator 15.0.0, SVG Export Plug-In . SVG Version: 6.00 Build 0)  -->
<!DOCTYPE svg PUBLIC "-//W3C//DTD SVG 1.1//EN" "http://www.w3.org/Graphics/SVG/1.1/DTD/svg11.dtd">
<svg version="1.1" id="Layer_1" xmlns="http://www.w3.org/2000/svg" xmlns:xlink="http://www.w3.org/1999/xlink" x="0px" y="0px"
	 width="150px" height="150px" viewBox="0 0 100 100" enable-background="new 0 0 100 100" xml:space="preserve">

<defs>
	<mask id="logo_mask" maskUnits="objectBoundingBox">
		<g opacity="0.3">
			<path fill="#FFFFFF" d="M7.446,77.805c0,17.084,6.041,32.788,16.161,45.041c2.97,3.613-1.953,21.266-5.571,25.814
			c-4.832,6.224,22.287-10.862,26.096-8.729c10.12,5.572,21.726,8.729,34.172,8.729c39.1,0,70.855-31.756,70.855-70.855
			c0-39.097-31.756-70.858-70.855-70.858C39.207,6.947,7.446,38.708,7.446,77.805z"/>
		</g>
		<g>
			<path fill="#FFFFFF" d="M1.875,72.232c0,17.085,6.04,32.788,16.161,45.043c2.97,3.612-1.955,21.265-5.573,25.813
			c-4.832,6.224,22.288-10.862,26.096-8.729c10.121,5.571,21.728,8.729,34.171,8.729c39.102,0,70.857-31.756,70.857-70.857
			c0-39.095-31.756-70.856-70.857-70.856C33.636,1.375,1.875,33.137,1.875,72.232z"/>
		</g>
	</mask>
</defs>
</svg>

