<?xml version="1.0" encoding="utf-8"?>
<!-- Generator: Adobe Illustrator 15.0.0, SVG Export Plug-In . SVG Version: 6.00 Build 0)  -->
<!DOCTYPE svg PUBLIC "-//W3C//DTD SVG 1.1//EN" "http://www.w3.org/Graphics/SVG/1.1/DTD/svg11.dtd">
<svg version="1.1" id="Layer_1" xmlns="http://www.w3.org/2000/svg" xmlns:xlink="http://www.w3.org/1999/xlink" x="0px" y="0px"
	 width="80px" height="80px" viewBox="0 0 100 100" enable-background="new 0 0 100 100" xml:space="preserve">

<defs>
	<mask id="logo_mask" maskUnits="objectBoundingBox">
		<g opacity="0.3">
			<path fill="#FFFFFF" d="M79.234,41.64c0,9.056-3.25,17.357-8.562,23.926c-1.577,1.909,1.09,11.289,2.909,13.702
				c2.578,3.312-11.787-5.741-13.791-4.652c-5.391,2.979-11.542,4.652-18.097,4.652c-20.764,0-37.542-16.776-37.542-37.547
				c0-20.757,16.778-37.536,37.542-37.536C62.369,4.019,79.234,20.879,79.234,41.64z"/>
		</g>
		<g>
			<path fill="#FFFFFF" d="M75.07,37.488c0,9.052-3.232,17.352-8.547,23.911c-1.577,1.917,1.073,11.3,2.901,13.703
				c2.58,3.327-11.797-5.722-13.781-4.642c-5.4,2.989-11.547,4.642-18.107,4.642C16.778,75.103,0,58.336,0,37.571
				C0,16.808,16.778,0.034,37.537,0.034C58.215-0.132,75.07,16.725,75.07,37.488z"/>
		</g>
	</mask>
</defs>
</svg>

